# Blender v2.79 (sub 0) OBJ File: 'UI.blend'
# www.blender.org
mtllib ui.mtl
o Plane.001_Plane.006
v -0.070000 0.039099 0.000000
v -0.019997 0.012003 0.000000
v -0.070000 0.042000 0.000000
v -0.065165 0.042000 0.000000
v 0.065165 0.042000 0.000000
v 0.020005 0.011998 0.000000
v 0.070000 0.042000 0.000000
v 0.070000 0.039099 0.000000
v -0.065165 -0.042000 0.000000
v -0.020005 -0.011998 0.000000
v -0.070000 -0.042000 0.000000
v -0.070000 -0.039099 0.000000
v 0.070000 -0.039099 0.000000
v 0.019997 -0.012003 0.000000
v 0.070000 -0.042000 0.000000
v 0.065165 -0.042000 0.000000
vt 0.000000 0.000000
vt 0.000000 0.000000
vt 0.000000 0.000000
vt 0.000000 0.000000
vt 0.000000 0.000000
vt 0.000000 0.000000
vt 0.000000 0.000000
vt 0.000000 0.000000
vt 0.000000 0.000000
vt 0.000000 0.000000
vt 0.000000 0.000000
vt 0.000000 0.000000
vt 0.000000 0.000000
vt 0.000000 0.000000
vt 0.000000 0.000000
vt 0.000000 0.000000
vn 0.0000 -0.0000 1.0000
usemtl material
s off
f 1/1/1 2/2/1 4/3/1 3/4/1
f 5/5/1 6/6/1 8/7/1 7/8/1
f 9/9/1 10/10/1 12/11/1 11/12/1
f 13/13/1 14/14/1 16/15/1 15/16/1
